<?xml version="1.0" encoding="UTF-8" standalone="no"?>
<!-- Created with Inkscape (http://www.inkscape.org/) -->

<svg
   xmlns:dc="http://purl.org/dc/elements/1.1/"
   xmlns:cc="http://creativecommons.org/ns#"
   xmlns:rdf="http://www.w3.org/1999/02/22-rdf-syntax-ns#"
   xmlns:svg="http://www.w3.org/2000/svg"
   xmlns="http://www.w3.org/2000/svg"
   xmlns:sodipodi="http://sodipodi.sourceforge.net/DTD/sodipodi-0.dtd"
   xmlns:inkscape="http://www.inkscape.org/namespaces/inkscape"
   width="25.201"
   height="25.201151"
   viewBox="0 0 6.6677645 6.6678045"
   version="1.1"
   id="svg8"
   inkscape:version="0.92.4 (unknown)"
   sodipodi:docname="copy.svg">
  <defs
     id="defs2" />
  <sodipodi:namedview
     id="base"
     pagecolor="#ffffff"
     bordercolor="#666666"
     borderopacity="1.0"
     inkscape:pageopacity="0.0"
     inkscape:pageshadow="2"
     inkscape:zoom="7.0172257"
     inkscape:cx="3.978916"
     inkscape:cy="22.600643"
     inkscape:document-units="mm"
     inkscape:current-layer="layer1"
     showgrid="false"
     inkscape:window-width="1366"
     inkscape:window-height="717"
     inkscape:window-x="0"
     inkscape:window-y="0"
     inkscape:window-maximized="1"
     fit-margin-top="0"
     fit-margin-left="0"
     fit-margin-right="0"
     fit-margin-bottom="0"
     units="px"
     inkscape:snap-global="false" />
  <metadata
     id="metadata5">
    <rdf:RDF>
      <cc:Work
         rdf:about="">
        <dc:format>image/svg+xml</dc:format>
        <dc:type
           rdf:resource="http://purl.org/dc/dcmitype/StillImage" />
        <dc:title></dc:title>
      </cc:Work>
    </rdf:RDF>
  </metadata>
  <g
     inkscape:label="Layer 1"
     inkscape:groupmode="layer"
     id="layer1"
     transform="translate(-84.657578,-159.58399)">
    <g
       id="g857"
       style="fill:#ffffff;fill-opacity:1"
       transform="matrix(1.2543542,0,0,1.2588001,-22.404965,-42.463024)">
      <g
         id="g4"
         transform="matrix(0.06391133,0,0,0.05947076,86.459639,160.57999)"
         style="fill:#ffffff;fill-opacity:1">
        <path
           id="path2"
           d="m 51.51,18.001 c -0.006,-0.085 -0.022,-0.167 -0.05,-0.248 -0.012,-0.034 -0.02,-0.067 -0.035,-0.1 -0.049,-0.106 -0.109,-0.206 -0.194,-0.291 v -10e-4 0 c 0,0 -0.001,-0.001 -0.001,-0.002 L 34.161,0.293 C 34.075,0.206 33.973,0.145 33.866,0.096 33.839,0.083 33.809,0.076 33.78,0.066 33.694,0.037 33.606,0.018 33.515,0.013 33.494,0.011 33.475,0 33.453,0 H 22.177 c -3.678,0 -6.669,2.992 -6.669,6.67 v 1.674 h -4.663 c -3.678,0 -6.67,2.992 -6.67,6.67 V 49.03 c 0,3.678 2.992,6.669 6.67,6.669 h 22.677 c 3.677,0 6.669,-2.991 6.669,-6.669 v -1.675 h 4.664 c 3.678,0 6.669,-2.991 6.669,-6.669 V 18.069 c 0,-0.024 -0.012,-0.044 -0.014,-0.068 z M 34.454,3.414 48.109,17.069 h -8.985 c -2.575,0 -4.67,-2.095 -4.67,-4.67 z m 3.737,45.615 c 0,2.574 -2.095,4.669 -4.669,4.669 H 10.845 c -2.575,0 -4.67,-2.095 -4.67,-4.669 V 15.014 c 0,-2.575 2.095,-4.67 4.67,-4.67 h 5.663 4.614 v 10.399 c 0,3.678 2.991,6.669 6.668,6.669 h 10.4 V 46.354 Z M 36.777,25.412 h -8.986 c -2.574,0 -4.668,-2.094 -4.668,-4.669 v -8.985 z m 8.078,19.943 H 40.191 V 26.412 c 0,-0.023 -0.012,-0.044 -0.014,-0.067 -0.006,-0.085 -0.021,-0.167 -0.049,-0.249 -0.012,-0.033 -0.021,-0.066 -0.036,-0.1 -0.048,-0.105 -0.109,-0.205 -0.194,-0.29 v 0 0 c 0,-0.001 -0.001,-0.002 -0.001,-0.002 L 22.829,8.637 C 22.742,8.551 22.641,8.49 22.534,8.441 22.505,8.428 22.476,8.42 22.446,8.41 22.36,8.38 22.274,8.362 22.183,8.357 22.162,8.355 22.143,8.344 22.121,8.344 H 17.507 V 6.67 C 17.507,4.095 19.602,2 22.176,2 h 10.277 v 10.4 c 0,3.678 2.992,6.67 6.67,6.67 h 10.399 v 21.616 c 0.002,2.574 -2.093,4.669 -4.667,4.669 z"
           style="fill:#ffffff;fill-opacity:1"
           inkscape:connector-curvature="0" />
      </g>
      <g
         aria-label="Copy"
         style="font-style:normal;font-weight:normal;font-size:2.11666656px;line-height:1.25;font-family:sans-serif;letter-spacing:0px;word-spacing:0px;fill:#ffffff;fill-opacity:1;stroke:none;stroke-width:0.26458332"
         id="text826">
        <path
           d="m 86.661785,163.96038 v 0.22014 q -0.10542,-0.0982 -0.225309,-0.14676 -0.118856,-0.0486 -0.253214,-0.0486 -0.264584,0 -0.405144,0.16227 -0.14056,0.16123 -0.14056,0.46715 0,0.30489 0.14056,0.46716 0.14056,0.16123 0.405144,0.16123 0.134358,0 0.253214,-0.0486 0.119889,-0.0486 0.225309,-0.14676 v 0.21808 q -0.109554,0.0744 -0.232544,0.11162 -0.121956,0.0372 -0.258382,0.0372 -0.350366,0 -0.551904,-0.21394 -0.201538,-0.21497 -0.201538,-0.58601 0,-0.37207 0.201538,-0.58601 0.201538,-0.21497 0.551904,-0.21497 0.138493,0 0.260449,0.0372 0.12299,0.0362 0.230477,0.10955 z"
           style="font-size:2.11666656px;fill:#ffffff;fill-opacity:1;stroke-width:0.26458332"
           id="path859" />
        <path
           d="m 87.426596,164.36036 q -0.152962,0 -0.241845,0.11989 -0.08888,0.11885 -0.08888,0.32659 0,0.20774 0.08785,0.32763 0.08888,0.11885 0.242879,0.11885 0.151929,0 0.240813,-0.11988 0.08888,-0.11989 0.08888,-0.3266 0,-0.20567 -0.08888,-0.32556 -0.08888,-0.12092 -0.240813,-0.12092 z m 0,-0.16123 q 0.248047,0 0.389641,0.16123 0.141593,0.16123 0.141593,0.44648 0,0.28422 -0.141593,0.44648 -0.141594,0.16123 -0.389641,0.16123 -0.24908,0 -0.390673,-0.16123 -0.14056,-0.16226 -0.14056,-0.44648 0,-0.28525 0.14056,-0.44648 0.141593,-0.16123 0.390673,-0.16123 z"
           style="font-size:2.11666656px;fill:#ffffff;fill-opacity:1;stroke-width:0.26458332"
           id="path861" />
        <path
           d="m 88.455991,165.21095 v 0.61392 h -0.191203 v -1.59784 h 0.191203 v 0.1757 q 0.05994,-0.10335 0.150895,-0.15296 0.09198,-0.0506 0.219108,-0.0506 0.21084,0 0.342098,0.16743 0.132292,0.16743 0.132292,0.44028 0,0.27285 -0.132292,0.44028 -0.131258,0.16743 -0.342098,0.16743 -0.127124,0 -0.219108,-0.0496 -0.09095,-0.0506 -0.150895,-0.154 z m 0.646989,-0.40411 q 0,-0.20981 -0.08682,-0.32866 -0.08578,-0.11989 -0.236678,-0.11989 -0.150895,0 -0.237711,0.11989 -0.08578,0.11885 -0.08578,0.32866 0,0.20981 0.08578,0.3297 0.08682,0.11885 0.237711,0.11885 0.150895,0 0.236678,-0.11885 0.08682,-0.11989 0.08682,-0.3297 z"
           style="font-size:2.11666656px;fill:#ffffff;fill-opacity:1;stroke-width:0.26458332"
           id="path863" />
        <path
           d="m 90.097234,165.49207 q -0.08061,0.20671 -0.157096,0.26975 -0.07648,0.0631 -0.204639,0.0631 H 89.58357 v -0.15917 h 0.111621 q 0.07855,0 0.121957,-0.0372 0.04341,-0.0372 0.09612,-0.1757 l 0.03411,-0.0868 -0.468188,-1.13895 h 0.201538 l 0.361735,0.90537 0.361735,-0.90537 h 0.201538 z"
           style="font-size:2.11666656px;fill:#ffffff;fill-opacity:1;stroke-width:0.26458332"
           id="path865" />
      </g>
      <path
         style="fill:#ffffff;fill-opacity:1;fill-rule:evenodd;stroke-width:0.24227424"
         d="m 86.99528,162.4059 h 1.565786 c 10e-7,0 3e-6,0 3e-6,0 v 0.10594 c 0,0 -2e-6,0 -3e-6,0 H 86.99528 c -10e-7,0 -3e-6,0 -3e-6,0 v -0.10594 c 0,0 2e-6,0 3e-6,0 z"
         id="rect828" />
      <path
         style="fill:#ffffff;fill-opacity:1;fill-rule:evenodd;stroke-width:0.24227425"
         d="m 87.005488,162.80539 h 1.565786 c 2e-6,0 3e-6,0 3e-6,0 v 0.10594 c 0,0 -10e-7,0 -3e-6,0 h -1.565786 c -10e-7,0 -2e-6,0 -2e-6,0 v -0.10594 c 0,0 10e-7,0 2e-6,0 z"
         id="rect828-3" />
    </g>
  </g>
</svg>
