<?xml version="1.0" encoding="UTF-8" standalone="no"?>
<!-- Created with Inkscape (http://www.inkscape.org/) -->

<svg
   xmlns:dc="http://purl.org/dc/elements/1.1/"
   xmlns:cc="http://creativecommons.org/ns#"
   xmlns:rdf="http://www.w3.org/1999/02/22-rdf-syntax-ns#"
   xmlns:svg="http://www.w3.org/2000/svg"
   xmlns="http://www.w3.org/2000/svg"
   xmlns:sodipodi="http://sodipodi.sourceforge.net/DTD/sodipodi-0.dtd"
   xmlns:inkscape="http://www.inkscape.org/namespaces/inkscape"
   width="210mm"
   height="297mm"
   viewBox="0 0 210 297"
   version="1.1"
   id="svg8"
   inkscape:version="0.92.4 (unknown)"
   sodipodi:docname="logo.svg">
  <defs
     id="defs2" />
  <sodipodi:namedview
     id="base"
     pagecolor="#ffffff"
     bordercolor="#666666"
     borderopacity="1.0"
     inkscape:pageopacity="0.0"
     inkscape:pageshadow="2"
     inkscape:zoom="1.5859375"
     inkscape:cx="166.5116"
     inkscape:cy="605.80542"
     inkscape:document-units="mm"
     inkscape:current-layer="layer1"
     showgrid="true"
     showguides="true"
     inkscape:guide-bbox="true"
     inkscape:snap-global="false"
     inkscape:window-width="1366"
     inkscape:window-height="717"
     inkscape:window-x="0"
     inkscape:window-y="0"
     inkscape:window-maximized="1">
    <inkscape:grid
       type="xygrid"
       id="grid817" />
  </sodipodi:namedview>
  <metadata
     id="metadata5">
    <rdf:RDF>
      <cc:Work
         rdf:about="">
        <dc:format>image/svg+xml</dc:format>
        <dc:type
           rdf:resource="http://purl.org/dc/dcmitype/StillImage" />
        <dc:title></dc:title>
      </cc:Work>
    </rdf:RDF>
  </metadata>
  <g
     inkscape:label="Layer 1"
     inkscape:groupmode="layer"
     id="layer1">
    <path
       style="fill:none;fill-rule:evenodd;stroke:#000000;stroke-width:1.05239987;stroke-miterlimit:4;stroke-dasharray:none;stroke-opacity:1"
       d="m 37.778248,131.34897 c -9.182623,-9.02677 -21.870163,-11.14252 -21.870163,-11.14252 0,0 2.200427,12.51956 11.383047,21.54631 9.182631,9.02678 21.870179,11.14252 21.870179,11.14252 0,0 -2.200441,-12.51954 -11.383063,-21.54631 z"
       id="path838"
       inkscape:connector-curvature="0"
       sodipodi:nodetypes="scscs" />
    <path
       sodipodi:nodetypes="scscs"
       inkscape:connector-curvature="0"
       id="path841"
       d="m 38.204169,142.2033 c 9.179324,-9.38171 11.324329,-22.35072 11.324329,-22.35072 0,0 -12.737632,2.24175 -21.916945,11.62346 -9.179333,9.38172 -11.324337,22.35073 -11.324337,22.35073 0,0 12.737621,-2.24175 21.916953,-11.62347 z"
       style="fill:none;fill-rule:evenodd;stroke:#000000;stroke-width:1.07334733;stroke-miterlimit:4;stroke-dasharray:none;stroke-opacity:1" />
    <path
       sodipodi:nodetypes="scscs"
       inkscape:connector-curvature="0"
       id="path843"
       d="m 34.777628,133.21435 c -5.020631,-4.93542 -11.957587,-6.0922 -11.957587,-6.0922 0,0 1.203092,6.8451 6.223722,11.78051 5.020634,4.93543 11.957593,6.09222 11.957593,6.09222 0,0 -1.203099,-6.84511 -6.223728,-11.78053 z"
       style="fill:#494949;fill-rule:evenodd;stroke:#000000;stroke-width:0.93491071;stroke-miterlimit:4;stroke-dasharray:none;stroke-opacity:1;fill-opacity:1" />
    <path
       style="fill:#494949;fill-rule:evenodd;stroke:#000000;stroke-width:0.95898122;stroke-miterlimit:4;stroke-dasharray:none;stroke-opacity:1;fill-opacity:1;opacity:1"
       d="m 35.384522,140.46767 c 5.06249,-5.14988 6.249064,-12.26545 6.249064,-12.26545 0,0 -7.021351,1.23407 -12.083831,6.38396 -5.062488,5.14989 -6.249061,12.26546 -6.249061,12.26546 0,0 7.021349,-1.23408 12.083828,-6.38397 z"
       id="path845"
       inkscape:connector-curvature="0"
       sodipodi:nodetypes="scscs" />
  </g>
</svg>
